<svg width="20" height="20" viewBox="0 0 20 20" fill="none" xmlns="http://www.w3.org/2000/svg">
<path fill-rule="evenodd" clip-rule="evenodd" d="M14.4159 19.726C14.5741 19.8768 14.7816 19.965 14.9999 19.974C15.2179 19.9647 15.4251 19.8766 15.5829 19.726C16.0349 19.279 19.9999 15.275 19.9999 12.458C20.0068 11.1338 19.4808 9.86258 18.5403 8.93039C17.5998 7.99821 16.324 7.48345 14.9999 7.50199C13.6759 7.48345 12.4 7.99821 11.4596 8.93039C10.5191 9.86258 9.9931 11.1338 9.99994 12.458C9.99994 15.275 13.9649 19.279 14.4159 19.726ZM13.363 12.4626C13.3582 11.5527 14.0901 10.8103 14.9999 10.802C15.9175 10.7992 16.6636 11.5405 16.6669 12.458C16.6647 13.3679 15.9271 14.1047 15.0172 14.1059C14.1073 14.1072 13.3677 13.3725 13.363 12.4626Z" fill="url(#paint0_linear_1_362)"/>
<path d="M5 9.89399C5.52833 10.4866 6.28926 10.8186 7.083 10.803C7.64947 10.8027 8.20212 10.6281 8.666 10.303C9.61209 7.6201 12.1552 5.83219 15 5.84999C16.008 5.86243 17.0021 6.08768 17.917 6.51099L14.917 1.31099C14.7567 1.05082 14.4726 0.892838 14.167 0.893993H4.167C3.86222 0.891982 3.57825 1.04835 3.417 1.30699L0.0830015 7.08899C0.0158522 7.21569 -0.0129863 7.35919 1.50013e-06 7.50199C1.50013e-06 9.48399 1.167 10.802 2.917 10.802C3.71058 10.8179 4.47149 10.4862 5 9.89399Z" fill="url(#paint1_linear_1_362)"/>
<path d="M8.333 12.462V12.292C7.92285 12.3891 7.5042 12.4461 7.083 12.462C6.35877 12.4634 5.64466 12.292 5 11.962C4.35534 12.292 3.64123 12.4634 2.917 12.462H2.5V18.239C2.48842 18.4624 2.57281 18.6801 2.73193 18.8373C2.89106 18.9945 3.10977 19.0763 3.333 19.062H11.583C10.083 17.331 8.333 14.688 8.333 12.462Z" fill="url(#paint2_linear_1_362)"/>
<defs>
<linearGradient id="paint0_linear_1_362" x1="9.99988" y1="7.50151" x2="9.99988" y2="19.974" gradientUnits="userSpaceOnUse">
<stop stop-color="#FFE00D"/>
<stop offset="1" stop-color="#FEA127"/>
</linearGradient>
<linearGradient id="paint1_linear_1_362" x1="-0.0030365" y1="0.893974" x2="-0.0030365" y2="10.8035" gradientUnits="userSpaceOnUse">
<stop stop-color="#FFE00D"/>
<stop offset="1" stop-color="#FEA127"/>
</linearGradient>
<linearGradient id="paint2_linear_1_362" x1="2.49895" y1="11.962" x2="2.49895" y2="19.0636" gradientUnits="userSpaceOnUse">
<stop stop-color="#FFE00D"/>
<stop offset="1" stop-color="#FEA127"/>
</linearGradient>
</defs>
</svg>
