<svg width="16" height="21" viewBox="0 0 16 21" fill="none" xmlns="http://www.w3.org/2000/svg">
<path fill-rule="evenodd" clip-rule="evenodd" d="M7.416 20.458C7.56163 20.628 7.77623 20.7232 8 20.717C8.22326 20.7231 8.4374 20.6284 8.583 20.459C9.85717 19.1068 11.0436 17.6746 12.135 16.171C13.0156 14.9789 13.7915 13.7128 14.454 12.387C15.0726 11.2335 15.4297 9.958 15.5 8.65099C15.5087 7.53458 15.2853 6.42853 14.844 5.40299C14.4422 4.48164 13.8573 3.65151 13.125 2.96299C11.7389 1.65138 9.9082 0.912305 8 0.893994C6.0918 0.912305 4.26108 1.65138 2.875 2.96299C2.14266 3.65151 1.55784 4.48164 1.156 5.40299C0.714713 6.42853 0.491325 7.53458 0.499999 8.65099C0.570111 9.95758 0.926881 11.2327 1.545 12.386C2.20749 13.7118 2.98338 14.9779 3.864 16.17C4.95541 17.6736 6.14183 19.1058 7.416 20.458ZM6.19729 6.82367C6.66943 6.33529 7.32072 6.06119 8 6.06499V6.06599C8.67909 6.0622 9.33022 6.33616 9.80233 6.82432C10.2744 7.31248 10.5265 7.97241 10.5 8.65099C10.5 10.0317 9.38071 11.151 8 11.151C6.61929 11.151 5.5 10.0317 5.5 8.65099C5.47323 7.97224 5.72516 7.31205 6.19729 6.82367Z" fill="#FE2121"/>
</svg>
