<svg width="20" height="21" viewBox="0 0 20 21" fill="none" xmlns="http://www.w3.org/2000/svg">
<path fill-rule="evenodd" clip-rule="evenodd" d="M0 10.805C0.0302983 16.301 4.50392 20.7353 10 20.717C15.4959 20.7347 19.9692 16.3008 20 10.805C20 5.28215 15.5228 0.804993 10 0.804993C4.47715 0.804993 0 5.28215 0 10.805ZM5.6 14.85L6.166 13.294L6.95 13.58C7.66511 13.8378 8.40948 14.0057 9.166 14.08V11.18C7.785 10.688 6.373 9.93799 6.373 8.10499C6.35068 7.21234 6.82253 6.38016 7.6 5.94099C8.08389 5.67691 8.61694 5.51522 9.166 5.46599V4.19399H10.831V5.47799C11.6564 5.55561 12.4618 5.77694 13.211 6.13199L13.942 6.53199L13.142 7.97999L12.412 7.57999C11.9139 7.34577 11.3803 7.19606 10.833 7.13699V9.99799C12.189 10.473 13.443 11.135 13.443 12.748C13.4861 13.6795 13.0486 14.5681 12.284 15.102C11.8461 15.3906 11.3512 15.5816 10.833 15.662V17.412H9.166V15.73C8.21618 15.6519 7.28061 15.4502 6.383 15.13L5.6 14.85Z" fill="#F18B36"/>
</svg>
