<svg width="20" height="21" viewBox="0 0 20 21" fill="none" xmlns="http://www.w3.org/2000/svg">
<path fill-rule="evenodd" clip-rule="evenodd" d="M0 10.805C0.0302983 16.301 4.50392 20.7353 10 20.717C15.4959 20.7347 19.9692 16.3008 20 10.805C20 5.28215 15.5228 0.804993 10 0.804993C4.47715 0.804993 0 5.28215 0 10.805ZM5.358 3.94999C6.652 3.09113 8.15971 2.6098 9.712 2.55999C10.0184 3.00284 10.3931 3.39436 10.822 3.71999C10.9908 3.85078 11.174 3.96184 11.368 4.05099C11.6242 4.15895 11.8556 4.31822 12.048 4.51899C12.1546 4.71933 12.1898 4.94996 12.148 5.17299C12.141 5.25199 12.141 5.32599 12.141 5.39199C12.139 5.75313 12.2902 6.09819 12.5571 6.34146C12.824 6.58474 13.1816 6.7034 13.541 6.66799H13.689C14.7125 6.50631 15.72 6.25569 16.7 5.91899C17.7594 7.32768 18.3325 9.0424 18.333 10.805C18.3041 14.0525 16.3919 16.9876 13.4329 18.326C10.4739 19.6645 7.00696 19.1626 4.549 17.04L4.559 17.027C4.56336 17.0216 4.56737 17.0159 4.571 17.01C5.943 14.724 5.082 13.327 4.443 12.698C4.26563 12.5295 4.07794 12.3722 3.881 12.227L3.88043 12.2266C3.36375 11.8288 3.022 11.5657 3.022 10.806C3.022 10.447 3.222 10.307 4.222 9.96999C4.97446 9.79151 5.65718 9.39413 6.184 8.82799C7.347 7.33799 6.068 5.03999 5.8 4.59399C5.66399 4.37177 5.51645 4.15681 5.358 3.94999Z" fill="url(#paint0_linear_1_441)"/>
<defs>
<linearGradient id="paint0_linear_1_441" x1="0" y1="0.804993" x2="0" y2="20.7171" gradientUnits="userSpaceOnUse">
<stop stop-color="#6C4DDA" stop-opacity="0.6"/>
<stop offset="1" stop-color="#522ED2"/>
</linearGradient>
</defs>
</svg>
